<svg width="20" height="20" fill="none" xmlns="http://www.w3.org/2000/svg"><path d="M2.571 0A2.585 2.585 0 000 2.571V17.43A2.585 2.585 0 002.571 20H17.43A2.585 2.585 0 0020 17.429V2.57A2.585 2.585 0 0017.429 0H2.57zm0 1.714H17.43c.49 0 .857.367.857.857v6.572h-3.51c-.409-2.265-2.398-4-4.776-4-2.378 0-4.367 1.735-4.777 4H1.714V2.57c0-.49.367-.857.857-.857zM15.714 3.43a1.142 1.142 0 10-.001 2.284 1.142 1.142 0 00.001-2.284zM10 6.857A3.13 3.13 0 0113.143 10 3.13 3.13 0 0110 13.143 3.13 3.13 0 016.857 10 3.13 3.13 0 0110 6.857zm-8.286 4h3.51a4.866 4.866 0 004.776 4 4.866 4.866 0 004.777-4h3.509v6.572c0 .49-.367.857-.857.857H2.57a.837.837 0 01-.857-.857v-6.572z" fill="#135359"/></svg>