<svg width="21" height="21" fill="none" xmlns="http://www.w3.org/2000/svg"><path fill-rule="evenodd" clip-rule="evenodd" d="M7.844 3.792v.023c0 .426-.067.847-.203 1.248h.084V20.74H.095V5.063h.107A3.905 3.905 0 010 3.815c0-1.024.39-2.008 1.14-2.732C1.89.36 2.89 0 3.934 0c1.051 0 2.049.364 2.793 1.102.736.73 1.095 1.695 1.117 2.667v.023zM2.48 5.062A1.8 1.8 0 012 3.816C2 2.788 2.764 2 3.934 2s1.887.788 1.91 1.815c0 .483-.172.922-.486 1.248-.338.349-.841.567-1.472.567-.593 0-1.078-.218-1.407-.567zM2.095 18.74h3.63V7.063h-3.63V18.74z" fill="#025157"/><path fill-rule="evenodd" clip-rule="evenodd" d="M5.71 5.063h7.048l.005.05A6.567 6.567 0 0114.8 4.8c1.656 0 3.282.568 4.472 1.892 1.17 1.302 1.707 3.095 1.707 5.146v8.902H5.898v-9.952c0-1.412-.046-2.595-.093-3.635l-.095-2.09zm7.266 2.109A4.144 4.144 0 0011.475 8.3c-.11.13-.201.26-.277.379l-.005.008h-.071l-.168-1.624H7.802c.028.606.055 1.268.074 2 .013.536.022 1.109.022 1.725v7.952h3.63v-6.734c0-.334.023-.669.12-.908.054-.138.122-.277.206-.411.217-.348.534-.66.964-.825.204-.08.434-.125.691-.125 1.314 0 1.84 1.027 1.84 2.531v6.472h3.63V11.84c0-3.44-1.792-5.04-4.18-5.04-.71 0-1.316.148-1.823.373z" fill="#025157"/></svg>