<svg width="24" height="20" fill="none" xmlns="http://www.w3.org/2000/svg"><path d="M8.571 19.71c-4.455 0-8.095-2.14-8.155-2.175a.86.86 0 01-.368-1.02.849.849 0 01.925-.565c2.413.323 4.093-.438 4.994-1.04C3.735 13.22-1.259 8.45 1.805 1.374a.862.862 0 01.721-.515c.31-.021.622.128.792.396.09.143 2.241 3.375 7.61 4.053A5.334 5.334 0 0116.256 0c1.308 0 2.539.469 3.514 1.33 1.409-.15 2.52-.182 2.57-.185a.946.946 0 01.328.055.858.858 0 011.105 1.106c-.164.437-.955 2.425-2.028 3.441.268 2.474-.346 6.11-4.312 10.194-2.806 2.887-6 3.769-8.861 3.769zm-4.045-2.286c3.075.918 7.79 1.321 11.675-2.677 3.746-3.86 4.123-7.149 3.78-9.226a.86.86 0 01.403-.874c.387-.232.86-.978 1.25-1.75-.52.032-1.262.089-2.066.182a.874.874 0 01-.718-.256 3.586 3.586 0 00-2.595-1.107 3.618 3.618 0 00-3.535 4.352.86.86 0 01-.89 1.044c-4.734-.286-7.559-2.345-8.934-3.715-1.887 6.67 4.62 10.534 4.915 10.705a.863.863 0 01.418.607.863.863 0 01-.205.707c-.067.08-1.258 1.39-3.498 2.008z" fill="#135359"/></svg>